<svg xmlns="http://www.w3.org/2000/svg" width="1654" height="421" fill="none"><g fill="#fff" clip-path="url(#a)"><path d="M540.531 156.08c3.87 0 7.23.77 9.9 2.41 2.67 1.64 5.34 4.74 7.92 9.39l51.06 92.74c.52 1.03.6 1.89.34 2.58-.26.69-1.03 1.03-2.24 1.03h-19.63c-1.72 0-2.93-.69-3.53-1.98l-10.94-19.89h-72.59l-10.68 19.89c-.69 1.38-1.89 1.98-3.53 1.98h-20.06c-1.38 0-2.15-.34-2.41-1.03-.26-.69-.17-1.55.34-2.58l50.72-92.82c2.58-4.65 5.08-7.75 7.58-9.39 2.5-1.64 5.34-2.41 8.61-2.41h9.13v.09l.01-.01Zm-30.05 68.28h53.21l-24.54-45.29c-.43-.69-.95-1.12-1.72-1.12h-.95c-.69 0-1.29.34-1.72 1.12l-24.28 45.29Zm211.39-68.28c11.88 0 20.32 2.67 25.49 8.01 5.17 5.34 7.75 13.26 7.75 23.77v8.78c0 8.87-1.81 15.84-5.42 21.01-3.61 5.17-9.47 8.44-17.65 9.9l26.43 32.72c.52.52.69 1.29.43 2.32-.17 1.03-1.03 1.55-2.5 1.55h-19.89c-1.38 0-2.24-.17-2.76-.43-.52-.34-1.03-.86-1.55-1.55l-24.45-32.12h-49.94v30.74c0 2.24-1.12 3.36-3.36 3.36h-16.7c-2.41 0-3.53-1.12-3.53-3.36V160.72c0-3.1 1.55-4.65 4.65-4.65h83.01l-.01.01Zm-63.98 55.11h59.16c5.25 0 8.96-1.12 11.11-3.36 2.15-2.24 3.27-5.68 3.27-10.33v-6.46c0-4.65-1.12-8.09-3.27-10.33s-5.86-3.36-11.11-3.36h-57.17c-1.38 0-1.98.6-1.98 1.89v31.95h-.01Zm226.47-55.11c10.59 0 18.17 2.15 22.65 6.37 4.48 4.22 6.72 10.59 6.72 19.12v7.41c0 8.61-3.27 15.15-9.9 19.63 7.06 4.13 10.68 10.76 10.68 19.89v8.96c0 4.13-.43 7.84-1.38 11.11-.95 3.27-2.41 6.11-4.56 8.44-2.15 2.32-4.91 4.13-8.44 5.34-3.53 1.21-7.84 1.89-13 1.89h-91.79c-3.1 0-4.65-1.55-4.65-4.65v-98.85c0-3.1 1.55-4.65 4.65-4.65h89.03l-.01-.01Zm-70 44.95h63.37c5.17 0 8.61-.77 10.5-2.32 1.89-1.55 2.76-3.79 2.76-6.8v-5.25c0-3.19-.86-5.51-2.67-7.06-1.81-1.46-4.74-2.24-8.7-2.24h-63.2c-1.38 0-1.98.69-1.98 1.98v21.7h-.09l.01-.01Zm0 16.79v22.99c0 1.38.69 1.98 1.98 1.98h63.37c4.13 0 7.06-.77 8.78-2.24 1.72-1.46 2.67-3.87 2.67-7.15v-5.86c0-3.19-.95-5.6-2.84-7.23-1.89-1.64-5.42-2.5-10.59-2.5h-63.37v.01Zm157.74-61.74c2.24 0 3.36 1.12 3.36 3.36v101.35c0 2.24-1.12 3.36-3.36 3.36h-16.7c-2.41 0-3.53-1.12-3.53-3.36V159.44c0-2.24 1.21-3.36 3.53-3.36h16.7Zm161.879 0c2.41 0 3.53 1.12 3.53 3.36v15.15c0 2.41-1.21 3.53-3.53 3.53h-48.48v82.66c0 2.24-1.12 3.36-3.36 3.36h-16.88c-2.24 0-3.36-1.12-3.36-3.36v-82.66h-48.48c-2.41 0-3.53-1.21-3.53-3.53v-15.15c0-2.24 1.21-3.36 3.53-3.36h120.56Zm122.18 0c11.88 0 20.32 2.67 25.49 8.01 5.17 5.34 7.75 13.26 7.75 23.77v8.78c0 8.87-1.81 15.84-5.42 21.01-3.62 5.17-9.47 8.44-17.65 9.9l26.43 32.72c.52.52.69 1.29.43 2.32-.17 1.03-1.03 1.55-2.5 1.55h-19.89c-1.38 0-2.24-.17-2.76-.43-.52-.34-1.03-.86-1.55-1.55l-24.45-32.12h-49.94v30.74c0 2.24-1.12 3.36-3.36 3.36h-16.7c-2.41 0-3.53-1.12-3.53-3.36V160.72c0-3.1 1.55-4.65 4.65-4.65h83.01l-.01.01Zm-63.89 55.11h59.16c5.25 0 8.96-1.12 11.11-3.36 2.15-2.24 3.27-5.68 3.27-10.33v-6.46c0-4.65-1.12-8.09-3.27-10.33s-5.86-3.36-11.11-3.36h-57.17c-1.38 0-1.98.6-1.98 1.89v31.95h-.01Zm150.78-55.11c2.24 0 3.36 1.12 3.36 3.36v61.65c0 4.13.34 7.58 1.03 10.25.69 2.76 1.81 4.91 3.36 6.46 1.55 1.64 3.62 2.76 6.29 3.36 2.67.69 5.94 1.03 9.99 1.03h42.79c4.05 0 7.32-.34 9.99-1.03s4.74-1.81 6.29-3.36c1.55-1.64 2.67-3.79 3.27-6.46.6-2.76.95-6.11.95-10.25v-61.65c0-2.24 1.12-3.36 3.36-3.36h16.88c2.24 0 3.36 1.12 3.36 3.36v63.98c0 7.41-.77 13.69-2.32 18.94-1.55 5.17-4.05 9.39-7.49 12.66-3.44 3.27-7.92 5.6-13.43 7.06s-12.14 2.15-19.98 2.15h-44.52c-7.84 0-14.47-.69-19.89-2.15s-9.9-3.79-13.35-7.06c-3.44-3.27-5.94-7.49-7.58-12.66-1.64-5.17-2.41-11.54-2.41-18.94v-63.98c0-2.24 1.21-3.36 3.53-3.36h16.53-.01Zm177.29 0c2.24 0 4.22.17 5.86.43 1.64.34 3.1.86 4.31 1.81 1.21.86 2.32 2.07 3.36 3.53.95 1.46 1.98 3.44 3.01 5.94l32.12 74.14c.43.95 1.12 1.38 2.15 1.38h1.89c1.03 0 1.72-.43 2.15-1.38l32.12-74.14c1.03-2.5 2.07-4.48 3.01-5.94.95-1.46 2.07-2.67 3.36-3.53 1.21-.86 2.67-1.46 4.22-1.81 1.64-.34 3.53-.43 5.77-.43h16.53c5.34 0 8.96 1.21 10.85 3.62 1.89 2.41 2.76 6.54 2.76 12.4v88.69c0 2.24-1.21 3.36-3.53 3.36h-15.76c-2.24 0-3.36-1.12-3.36-3.36v-80.68c0-1.03-.43-1.55-1.21-1.55h-1.38c-1.03 0-1.72.43-1.98 1.21L1595.42 249c-1.21 2.76-2.5 5.17-3.79 7.06-1.29 1.89-2.67 3.44-4.13 4.74a13.691 13.691 0 0 1-5.08 2.67c-1.89.52-4.13.77-6.72.77h-7.41c-2.58 0-4.82-.26-6.72-.77-1.89-.52-3.62-1.38-5.08-2.67-1.46-1.21-2.93-2.84-4.13-4.74-1.29-1.89-2.58-4.22-3.79-7.06l-31.17-69.23c-.34-.86-.95-1.21-1.98-1.21h-1.38c-.86 0-1.21.52-1.21 1.55v80.68c0 2.24-1.12 3.36-3.36 3.36h-15.76c-2.41 0-3.53-1.12-3.53-3.36V172.1c0-5.86.95-9.99 2.76-12.4 1.89-2.41 5.51-3.62 10.94-3.62h16.46ZM188.11 26.09c1.03 0 1.98.26 2.93.77l154.13 89.64c1.81 1.03 2.93 2.93 2.84 4.99l-.6 178.33c0 2.07-1.12 3.96-2.93 4.99l-154.65 88.6c-.86.52-1.89.77-2.93.77-1.04 0-1.98-.26-2.93-.77L29.85 303.78c-1.81-1.03-2.93-2.93-2.84-4.99l.6-178.33c0-2.07 1.12-3.96 2.93-4.99l154.73-88.69c.86-.43 1.89-.69 2.84-.69ZM188.2 0c-5.51 0-11.02 1.38-15.93 4.22L17.62 92.82C7.72 98.51 1.6 109.01 1.6 120.38L1 298.71c0 11.37 6.03 21.87 15.84 27.64l154.13 89.64c4.91 2.84 10.42 4.31 15.93 4.31s11.02-1.38 15.93-4.22l154.65-88.6c9.9-5.68 16.02-16.19 16.02-27.55l.6-178.33c0-11.37-6.03-21.87-15.84-27.64L204.13 4.31C199.22 1.47 193.71 0 188.2 0Z"/><path d="M219.45 97.21h-22.56c-1.72 0-3.19 1.03-3.79 2.67l-72.67 199.16c-.52 1.29.52 2.67 1.89 2.67h22.56c1.72 0 3.19-1.03 3.79-2.67l72.67-199.16c.52-1.29-.52-2.67-1.89-2.67Zm-39.52 0h-22.56c-1.72 0-3.19 1.03-3.79 2.67L80.99 298.96c-.52 1.29.52 2.67 1.89 2.67h22.56c1.72 0 3.19-1.03 3.79-2.67l72.59-199.08c.52-1.29-.43-2.67-1.89-2.67Zm29.28 77.15c-.6-1.81-3.19-1.81-3.79 0l-11.71 32.2c-.34.86-.34 1.89 0 2.76l32.72 89.64c.6 1.55 2.07 2.67 3.79 2.67h22.56c1.38 0 2.41-1.38 1.89-2.67l-45.46-124.6Zm84.9 124.6L228.93 120.2c-.6-1.81-3.19-1.81-3.79 0l-11.71 32.2c-.34.86-.34 1.89 0 2.76l52.44 143.8c.6 1.55 2.07 2.67 3.79 2.67h22.56c1.46.09 2.41-1.38 1.89-2.67Z"/></g><defs><clipPath id="a"><path fill="#fff" d="M0 0h1653.24v420.29H0z"/></clipPath></defs></svg>