<svg xmlns="http://www.w3.org/2000/svg" width="285" height="137" fill="none"><path fill="#056DE2" d="M120.918 122.859h.356v.206l-.178.102-.178-.308Zm-1.896-120.15a1.896 1.896 0 1 1 3.793 0 1.896 1.896 0 0 1-3.793 0ZM.768 192.228l-.178-.308 120.151-69.369.177.308.178.308L.946 192.536l-.178-.308Zm120.15-69.369h-.355V2.709h.711v120.15h-.356Zm40.354 0h.355v.206l-.177.102-.178-.308Zm-1.897-120.15a1.897 1.897 0 1 1 3.793 0 1.897 1.897 0 0 1-3.793 0ZM41.121 192.228l-.178-.308 120.151-69.369.178.308.178.308-120.151 69.369-.178-.308Zm120.151-69.369h-.356V2.709h.711v120.15h-.355Zm40.349 0h.356v.206l-.178.102-.178-.308Zm-1.896-120.15a1.896 1.896 0 1 1 3.793 0 1.896 1.896 0 0 1-3.793 0ZM81.471 192.228l-.178-.308 120.151-69.369.177.308.178.308-120.15 69.369-.178-.308Zm120.15-69.369h-.355V2.709h.711v120.15h-.356Zm40.351 0h.356v.206l-.178.102-.178-.308Zm-1.896-120.15a1.896 1.896 0 1 1 3.793 0 1.896 1.896 0 0 1-3.793 0ZM121.821 192.228l-.178-.308 120.151-69.369.178.308.178.308-120.151 69.369-.178-.308Zm120.151-69.369h-.356V2.709h.712v120.15h-.356Zm40.352 0h.355v.206l-.178.102-.177-.308Zm-1.897-120.15a1.897 1.897 0 1 1 3.793 0 1.897 1.897 0 0 1-3.793 0ZM162.173 192.228l-.178-.308 120.151-69.369.178.308.177.308-120.15 69.369-.178-.308Zm120.151-69.369h-.356V2.709h.711v120.15h-.355Z"/></svg>