<svg xmlns="http://www.w3.org/2000/svg" width="1727" height="439" fill="none"><g clip-path="url(#a)"><mask id="b" width="1728" height="438" x="0" y="0" maskUnits="userSpaceOnUse" style="mask-type:luminance"><path fill="#fff" d="M1727.01 0H0v437.791h1727.01V0Z"/></mask><g fill="#fff" mask="url(#b)"><path d="M189.457 0 0 109.448v218.896l189.457 109.447 189.456-109.447V109.448L189.457 0ZM298.65 281.956l-109.158 63.059-109.16-63.059v-126.12l109.16-63.06 109.158 63.06v126.12Zm288.132 46.614c-18.814 0-35.667-4.308-50.51-12.976-14.858-8.651-26.585-21.135-35.177-37.492-8.594-16.355-12.882-36.039-12.882-59.067s4.34-43.026 12.968-59.434c8.646-16.391 20.409-28.894 35.319-37.492 14.895-8.599 31.661-12.889 50.301-12.889 12.11 0 23.416 1.734 33.812 5.166 10.414 3.432 19.673 8.423 27.792 14.972 8.122 6.55 14.72 14.553 19.849 24.009 5.11 9.456 8.418 20.208 9.959 32.274h-42.268c-.964-6.112-2.817-11.575-5.583-16.426-2.783-4.816-6.284-8.931-10.518-12.328-4.253-3.397-9.083-5.972-14.457-7.74-5.408-1.769-11.288-2.645-17.694-2.645-11.271 0-21.194 2.82-29.805 8.458-8.594 5.639-15.315 13.852-20.128 24.657-4.83 10.788-7.246 23.956-7.246 39.418 0 15.464 2.433 28.895 7.298 39.646 4.884 10.753 11.57 18.86 20.128 24.36 8.559 5.498 18.43 8.248 29.578 8.248 6.213 0 11.988-.841 17.326-2.522 5.338-1.663 10.151-4.116 14.404-7.319 4.236-3.187 7.806-7.11 10.676-11.751 2.871-4.64 4.884-9.964 6.021-15.972h42.268a82.748 82.748 0 0 1-8.945 28.528c-4.726 8.965-11.025 16.934-18.919 23.85-7.875 6.936-17.152 12.381-27.793 16.426-10.658 4.01-22.578 6.024-35.738 6.024v.053l-.036-.036Zm155.033-96.137v93.178h-40.972V112.005h39.833v81.271h2.012c3.712-9.263 9.558-16.583 17.485-21.942 7.911-5.341 18.009-8.038 30.225-8.038 11.079 0 20.793 2.382 29.072 7.163 8.312 4.78 14.77 11.662 19.339 20.646 4.585 8.965 6.861 19.841 6.861 32.553v101.919h-41.129V230.54c0-10.33-2.627-18.368-7.877-24.165-5.25-5.778-12.671-8.668-22.21-8.668-6.406 0-12.04 1.382-16.906 4.168-4.882 2.783-8.715 6.725-11.534 11.819-2.818 5.132-4.218 11.332-4.218 18.72v.036l.019-.017Zm176.693 96.348c-10.222 0-19.357-1.821-27.425-5.445-8.069-3.643-14.422-9.019-19.06-16.129-4.638-7.108-6.947-15.935-6.947-26.441 0-8.967 1.645-16.445 4.953-22.382 3.307-5.935 7.787-10.717 13.476-14.393 5.687-3.679 12.112-6.462 19.339-8.319 7.21-1.855 14.789-3.17 22.699-3.94 9.363-.964 16.908-1.838 22.647-2.643 5.741-.807 9.907-2.102 12.532-3.871 2.625-1.769 3.937-4.379 3.937-7.81v-.718c0-7.181-2.205-12.749-6.579-16.706-4.393-3.958-10.659-5.953-18.781-5.953-8.592 0-15.417 1.873-20.494 5.673-5.058 3.764-8.435 8.335-10.168 13.676l-38.119-4.168c2.381-9.736 6.721-18.036 12.968-24.866 6.249-6.83 14.108-12.048 23.559-15.638s20.197-5.394 32.238-5.394c8.313 0 16.416.981 24.292 2.942 7.877 1.944 14.982 5.061 21.353 9.334 6.335 4.255 11.428 9.876 15.172 16.845 3.76 6.989 5.67 15.481 5.67 25.533v107.645h-39.238V303.39h-1.137c-2.502 4.764-5.81 9.088-10.028 12.923-4.201 3.836-9.363 6.847-15.472 9.107-6.107 2.259-13.232 3.38-21.351 3.38h-.053l.017-.019Zm11.148-29.243c7.071 0 13.232-1.401 18.482-4.222 5.252-2.819 9.363-6.583 12.322-11.311 2.958-4.728 4.446-9.964 4.446-15.69v-17.934c-1.331.964-3.309 1.822-5.865 2.593-2.589.77-5.494 1.47-8.75 2.083a297.762 297.762 0 0 1-9.608 1.646c-3.15.474-5.969.859-8.454 1.139-5.442.77-10.239 2.014-14.404 3.712-4.165 1.734-7.438 4.063-9.819 7.022-2.378 2.959-3.586 6.69-3.586 11.19 0 6.497 2.361 11.418 7.087 14.781 4.725 3.343 10.763 5.008 18.116 5.008h.016l.017-.017Zm103.034 26.09V165.362h40.97v160.266h-40.97Zm108.89-93.195v93.18h-40.97V165.328h40.26v27.948h1.73c3.62-9.175 9.38-16.46 17.26-21.871 7.87-5.411 17.78-8.091 29.73-8.091 11.08 0 20.76 2.382 29 7.162 8.26 4.764 14.67 11.681 19.22 20.7 4.53 9.036 6.81 19.858 6.81 32.466v101.917h-40.98v-95.035c0-10.226-2.64-18.265-7.94-24.078-5.29-5.814-12.58-8.756-21.86-8.756-6.3 0-11.88 1.382-16.7 4.168-4.83 2.783-8.61 6.723-11.39 11.819-2.78 5.132-4.15 11.33-4.15 18.72v.036h-.02Zm170.92-130.935V325.63h-40.97V101.498h40.97Zm26.92 224.13V165.362h40.97v160.266h-40.97Zm108.87-93.195v93.18h-40.97V165.328h40.26v27.948h1.73c3.62-9.175 9.38-16.46 17.26-21.871 7.87-5.411 17.78-8.091 29.73-8.091 11.08 0 20.76 2.382 29.02 7.162 8.26 4.764 14.67 11.681 19.2 20.7 4.53 9.036 6.81 19.858 6.81 32.466v101.917h-40.97v-95.035c0-10.226-2.65-18.265-7.95-24.078-5.29-5.814-12.58-8.756-21.86-8.756-6.3 0-11.88 1.382-16.7 4.168-4.83 2.783-8.61 6.723-11.39 11.819-2.78 5.132-4.17 11.33-4.17 18.72v.036Zm230.13 93.197h48.59l-63.97-90.868 60.66-69.417h-47.55l-54.33 62.657h-2.55V112.005h-40.99V325.63h40.99v-52.325l12.84-14.256 46.31 66.562v.019Zm-604.44-224.132h-40.97v40.994h40.97v-40.994Zm306.76 0h-40.97v40.994h40.97v-40.994Z"/></g></g><defs><clipPath id="a"><path fill="#fff" d="M0 0h1727v439H0z"/></clipPath></defs></svg>