<svg xmlns="http://www.w3.org/2000/svg" width="1311" height="158" fill="none"><g fill="#fff" clip-path="url(#a)"><path d="M867.094.456v38.508h-38.442M982.424.457H867.098v38.508h115.326V.457ZM867.095 38.965h-38.442v38.508h38.442V38.965Zm.003 115.525v-38.509h38.442"/><path d="M867.095 77.473v38.509h-38.442m76.887-38.509h-38.442v38.509h38.442V77.473Z"/><path d="M905.538 115.982V77.473h38.442m-76.885 38.508h-38.442v38.509h38.442v-38.509Z"/><path d="M943.98 115.981h-38.442v38.509h38.442v-38.509Z"/><path d="M982.421 115.981h-38.442v38.509h38.442v-38.509ZM39.288 3.51v38.51H.846M154.615 3.51H39.289v38.51h115.326V3.51Z"/><path d="M39.288 42.019H.846v38.508h38.442V42.019Zm.001 115.525v-38.509H77.73M39.288 80.527v38.509H.846M77.73 80.527H39.29v38.508h38.44V80.527Zm.002 38.508V80.527h38.442"/><path d="M39.288 119.035H.846v38.509h38.442v-38.509Zm76.886 0H77.732v38.509h38.442v-38.509Z"/><path d="M154.613 119.035h-38.442v38.509h38.442v-38.509ZM207.717 2.414h-38.442v38.508h38.442V2.414Z"/><path d="M246.156 40.922h-38.442V2.414m76.886 0v38.508h-38.442m76.884-38.508H284.6v38.508h38.442V2.414ZM169.275 40.922h38.442v38.509"/><path d="M246.156 40.922h-38.442v38.509h38.442V40.922Zm38.444 0h-38.442v38.509H284.6V40.922Zm0 38.508V40.923h38.442"/><path d="M207.717 79.43h-38.442v38.509h38.442V79.431Z"/><path d="M246.156 79.43v38.509l-38.442-38.508h38.442Zm.002 38.509V79.431H284.6m38.442-.001H284.6v38.509h38.442V79.431Zm-115.325 38.509h-38.442v38.509h38.442v-38.509Z"/><path d="M323.042 117.939H284.6v38.509h38.442v-38.509ZM694.43 2.414v38.508h-38.442m76.885-38.508h-38.442v38.508h38.442V2.414Zm38.442 0h-38.442v38.508h38.442V2.414Z"/><path d="M809.757 2.414h-38.442v38.508h38.442V2.414ZM694.43 40.922h-38.442v38.509h38.442V40.922Z"/><path d="M809.757 40.922h-38.442v38.509h38.442V40.922ZM694.43 79.43v38.509h-38.442m76.885-38.509v38.509h-38.442"/><path d="M771.315 79.43h-38.442v38.509h38.442V79.431Zm0 38.509V79.431h38.442M694.43 117.939h-38.442v38.509h38.442v-38.509Zm.001 38.509v-38.509h38.442"/><path d="M809.757 117.939h-38.442v38.509h38.442v-38.509ZM1032.59 2.532V41.04h-38.441m76.881-38.509h-38.44V41.04h38.44V2.53Zm38.44 0h-38.44V41.04h38.44V2.53Zm38.45 38.509h-38.45V2.53m-76.88 77.018V41.04h38.44m76.89 0h-38.45v38.508h38.45V41.04Zm-115.33 38.509v38.508h-38.441m76.881-38.508h-38.44v38.508h38.44V79.549Zm38.44 0h-38.44v38.508h38.44V79.549Zm38.45 38.508h-38.45V79.549"/><path d="M1032.59 118.057h-38.441v38.508h38.441v-38.508Zm115.33 0h-38.45v38.508h38.45v-38.508Zm46.91-115.526h-38.44V41.04h38.44V2.53Zm0 38.509h-38.45v38.51h38.45V41.04Z"/><path d="M1156.38 79.549h38.45v38.508"/><path d="M1233.27 118.057h-38.44V79.549m0 38.508h-38.45v38.508h38.45v-38.508Zm76.88 0h-38.44v38.508h38.44v-38.508Zm0 38.508v-38.508h38.44M408.395 2.414h-38.442v38.508h38.442V2.414Zm38.443 0h-38.442v38.508h38.442V2.414Z"/><path d="M369.955 40.922h-38.442v38.509h38.442V40.922Z"/><path d="M369.955 2.414v38.509h-38.442"/><path d="M408.395 2.414h-38.442v38.508h38.442V2.414Zm38.443 0h-38.442v38.508h38.442V2.414Z"/><path d="M485.28 40.922h-38.442V2.414l38.442 38.508Zm-115.325 0h-38.442v38.509h38.442V40.922Z"/><path d="M485.28 40.922h-38.442v38.509h38.442V40.922ZM369.955 79.43v38.509h-38.442"/><path d="M408.395 79.43v38.509h-38.442m76.885-38.509h-38.442v38.509h38.442V79.431Zm0 38.509V79.431h38.442"/><path d="M369.955 117.939h-38.442v38.509h38.442v-38.509Z"/><path d="M369.953 156.448v-38.509h38.442M647.516 2.414h-38.442v38.509h38.442V2.414Zm-76.881 38.509h-38.442V79.43h38.442V40.923Z"/><path d="M609.076 40.923h-38.442V79.43h38.442V40.923Z"/><path d="M647.516 40.923h-38.442V79.43h38.442V40.923ZM532.193 2.415h-38.442v38.508h38.442V2.415Zm115.323-.001h-38.442v38.509h38.442V2.414ZM493.751 40.923h38.442V79.43m38.442-38.507h-38.442V79.43h38.442V40.923Z"/><path d="M609.076 40.923h-38.442V79.43h38.442V40.923Z"/><path d="M647.516 40.923h-38.442V79.43h38.442V40.923Zm-38.442 77.017V79.431h38.442"/><path d="M609.077 117.939H493.751v38.509h115.326v-38.509Z"/></g><defs><clipPath id="a"><path fill="#fff" d="M.846.456h1309.31v157.088H.846z"/></clipPath></defs></svg>