<svg xmlns="http://www.w3.org/2000/svg" width="1310" height="158" fill="none"><path fill="#fff" d="M809.257 118.001h-38.442v38.508h38.442v-38.508Zm385.073.117h-38.45v38.509h38.45v-38.509Zm-585.756-.117H493.251v38.508h115.326l-.003-38.508Z"/><path fill="#fff" fill-rule="evenodd" d="M168.775 2.476h38.442l38.439 38.508L284.1 2.476h38.442v38.508L284.1 79.492l-38.444 38.509-38.442-38.509-38.439-38.508V2.476ZM38.788 3.572h115.327V42.08H38.788v38.508H.346V42.081L38.788 3.572Zm0 77.016h76.886l-38.443 38.509-38.442 38.508H.346v-38.508l38.442-38.508Z" clip-rule="evenodd"/><path fill="#fff" fill-rule="evenodd" d="M77.23 119.097h76.884v38.508H77.232l-.001-38.508Zm91.545 37.412V79.492h38.439l.003 38.509v38.508h-38.442ZM284.1 79.492h38.442v77.017H284.1V79.492Zm85.353-77.016h76.885l38.442 38.508v38.508l-38.442 38.509h-38.443l-38.44 38.508h-38.442v-38.508l38.442-38.509v38.509l38.44-38.509h38.443V40.984h-76.885l.002 38.508h-38.442V40.984l38.44-38.508Zm239.121 0h38.442v77.017L608.574 118l.002-38.508h-76.883l-38.442-38.508V2.475h38.442v38.508h76.881V2.476Zm85.356 0h115.327v77.016l-38.442 38.509h-38.442l-38.443 38.508h-38.442v-38.508l38.442-38.509v38.509l38.443-38.509h38.442V40.984H693.93v38.508h-38.442V40.984L693.93 2.476ZM866.594.518h115.33v38.508h-115.33l.001 38.509h-38.442l-.001-38.509L866.594.518Zm.001 77.017h76.885l-38.44 38.508-38.442 38.508h-38.445v-38.508l38.442-38.508Zm38.445 38.508h76.881v38.508h-76.883l.002-38.508Zm127.05-74.941h-38.441l38.441-38.508 38.44-.001h38.44l38.45 38.508V79.61h-38.45V41.101h-38.44l-38.44 38.509V41.102Zm0 38.508h76.88l38.45 38.508v38.509h-38.45v-38.509h-76.88v38.509h-38.441v-38.509l38.441-38.508Zm200.68 38.508h-38.44l-38.45-38.508.01-77.017h38.44V79.61l38.44 38.508Zm0 0h76.88l-38.44 38.509h-38.44v-38.509Z" clip-rule="evenodd"/></svg>